HIERARCHY
ROOT Hips
{
	OFFSET 0.000000 0.000000 0.000000
	CHANNELS 6 Xposition Yposition Zposition Yrotation Xrotation Zrotation
	JOINT Chest
	{
		OFFSET 0.000000 -0.009281 11.569106
		CHANNELS 3 Yrotation Xrotation Zrotation
		JOINT Chest2
		{
			OFFSET -0.000000 0.016865 9.269641
			CHANNELS 3 Yrotation Xrotation Zrotation
			JOINT Chest3
			{
				OFFSET -0.000000 0.000001 8.374491
				CHANNELS 3 Yrotation Xrotation Zrotation
				JOINT Chest4
				{
					OFFSET -0.000000 0.000001 8.374493
					CHANNELS 3 Yrotation Xrotation Zrotation
					JOINT Neck
					{
						OFFSET -0.000000 0.000002 12.152554
						CHANNELS 3 Yrotation Xrotation Zrotation
						JOINT Head
						{
							OFFSET -0.000000 0.040101 7.802319
							CHANNELS 3 Yrotation Xrotation Zrotation
							End Site
							{
								OFFSET -0.000000 0.020947 14.853096
							}
						}
					}
					JOINT RightCollar
					{
						OFFSET 2.894404 0.000001 6.791374
						CHANNELS 3 Yrotation Xrotation Zrotation
						JOINT RightShoulder
						{
							OFFSET 13.574684 0.000001 0.000000
							CHANNELS 3 Yrotation Xrotation Zrotation
							JOINT RightElbow
							{
								OFFSET 23.923903 0.000002 0.000000
								CHANNELS 3 Yrotation Xrotation Zrotation
								JOINT RightWrist
								{
									OFFSET 19.846718 0.012767 0.000000
									CHANNELS 3 Yrotation Xrotation Zrotation
									End Site
									{
										OFFSET 14.973145 0.000001 0.000000
									}
								}
							}
						}
					}
					JOINT LeftCollar
					{
						OFFSET -2.894404 0.000001 6.791374
						CHANNELS 3 Yrotation Xrotation Zrotation
						JOINT LeftShoulder
						{
							OFFSET -13.574684 -0.000001 0.000000
							CHANNELS 3 Yrotation Xrotation Zrotation
							JOINT LeftElbow
							{
								OFFSET -23.923903 -0.000002 0.000000
								CHANNELS 3 Yrotation Xrotation Zrotation
								JOINT LeftWrist
								{
									OFFSET -19.846718 0.012763 0.000000
									CHANNELS 3 Yrotation Xrotation Zrotation
									End Site
									{
										OFFSET -14.973145 -0.000001 0.000000
									}
								}
							}
						}
					}
				}
			}
		}
	}
	JOINT RightHip
	{
		OFFSET 9.469263 0.004643 0.045487
		CHANNELS 3 Yrotation Xrotation Zrotation
		JOINT RightKnee
		{
			OFFSET 0.000000 0.002661 -40.478676
			CHANNELS 3 Yrotation Xrotation Zrotation
			JOINT RightAnkle
			{
				OFFSET 0.000000 0.049106 -35.224068
				CHANNELS 3 Yrotation Xrotation Zrotation
				JOINT RightToe
				{
					OFFSET -0.000001 12.539529 -6.151390
					CHANNELS 3 Yrotation Xrotation Zrotation
					End Site
					{
						OFFSET -0.000001 5.044994 -1.291870
					}
				}
			}
		}
	}
	JOINT LeftHip
	{
		OFFSET -9.469263 0.004641 0.045487
		CHANNELS 3 Yrotation Xrotation Zrotation
		JOINT LeftKnee
		{
			OFFSET 0.000000 0.002661 -40.478676
			CHANNELS 3 Yrotation Xrotation Zrotation
			JOINT LeftAnkle
			{
				OFFSET 0.000000 0.049106 -35.224068
				CHANNELS 3 Yrotation Xrotation Zrotation
				JOINT LeftToe
				{
					OFFSET -0.000001 12.539529 -6.151390
					CHANNELS 3 Yrotation Xrotation Zrotation
					End Site
					{
						OFFSET -0.000001 5.044994 -1.291870
					}
				}
			}
		}
	}
}
MOTION
Frames: 15
Frame Time: 0.016667
-0.091739 -35.234455 82.715416 -4.036198 0.134279 -122.614163 -1.402492 -4.564517 3.513433 -0.660837 -2.003056 1.482017 -0.660838 -2.003056 1.482021 -0.490721 -1.503906 1.109238 1.116232 -12.654359 -3.184545 0.796246 12.666679 -5.595772 10.138412 5.012907 -1.685029 42.686346 -15.304594 -14.898302 -28.102965 -61.269836 87.645001 -44.612969 40.542070 50.443823 -7.689194 4.741747 -7.295572 -40.655127 -8.562006 20.220514 -3.442213 -64.945311 -59.729048 30.169458 15.530167 -74.989091 -6.096822 4.075911 -11.381530 6.494540 -23.459991 -18.976050 -4.144311 10.077766 3.850409 4.261414 5.173203 0.192193 0.801744 -2.978111 14.982775 0.306712 -5.834022 7.434507 0.890028 3.889293 8.108101 -1.902493 0.542989 0.025597 
0.664941 -34.826641 82.770592 -4.275753 0.470574 -122.745097 -1.635644 -4.565771 3.524831 -0.712243 -2.051876 1.475741 -0.712243 -2.051876 1.475735 -0.529172 -1.540641 1.104296 1.084887 -12.615145 -3.161554 0.744673 12.738858 -5.566091 10.163655 5.114063 -1.704950 42.693644 -15.472216 -14.779693 -27.886868 -61.346621 87.454248 -44.663287 40.435495 50.366962 -7.725007 4.871868 -7.350294 -40.453865 -8.564892 20.270446 -3.541011 -64.984803 -59.742524 30.155514 15.626196 -75.181026 -6.514934 3.485833 -12.006817 5.268084 -23.077228 -14.772096 -3.748839 10.306867 -0.446154 3.512707 3.512086 0.076828 0.126975 -3.148402 13.962666 -0.189576 -6.337773 7.483842 0.861629 4.025205 9.922340 -1.138160 0.947037 0.013249 
1.022366 -34.087063 82.789124 -3.511478 1.190186 -123.571605 -1.776010 -3.628414 4.238631 -0.736668 -2.039390 1.515238 -0.736668 -2.039389 1.515233 -0.547389 -1.531383 1.133851 1.054006 -12.536623 -3.175352 0.677075 12.883093 -5.607327 10.173844 4.894555 -1.704703 42.796893 -15.469381 -14.567357 -27.517386 -61.351744 87.113804 -44.676493 40.444350 50.356034 -7.625509 4.689314 -7.430149 -40.339702 -8.410910 20.032279 -2.979543 -64.933222 -60.273489 30.180861 15.675259 -75.316291 -7.721686 4.383405 -10.245871 6.864385 -22.139529 -12.507501 -4.297103 9.952035 -4.293591 2.581808 2.230538 0.063280 -0.412205 -1.807264 12.656544 -0.587614 -7.057151 8.452435 0.623838 4.113111 11.269241 -0.377916 1.213217 0.000365 
1.125748 -33.331276 82.832489 -3.233835 1.375921 -123.906557 -1.747842 -3.369464 4.488365 -0.699097 -2.017794 1.562869 -0.699097 -2.017793 1.562871 -0.519111 -1.515147 1.169721 0.981045 -12.554537 -3.184995 0.534840 12.846754 -5.655794 10.264083 4.820586 -1.543820 42.876232 -15.620982 -14.623269 -27.180613 -61.273798 86.765764 -44.868718 40.772466 50.313909 -7.687795 4.887749 -7.316013 -40.363194 -8.631985 19.847254 -2.376076 -64.804480 -60.596216 30.022219 15.523003 -75.331140 -8.311484 4.867813 -8.893327 7.633003 -21.687755 -13.869871 -4.184179 9.670645 -4.390278 2.124693 1.555991 0.185041 -0.707974 -0.888159 10.949115 -0.923989 -8.006916 10.117051 0.338657 4.252028 11.556285 0.186473 1.347812 0.054058 
1.468682 -32.743153 82.886131 -3.980329 1.037534 -123.157914 -1.716447 -4.229498 3.717200 -0.652760 -1.978367 1.574091 -0.652760 -1.978367 1.574094 -0.484428 -1.485470 1.178341 0.909551 -12.621624 -3.169220 0.408079 12.719837 -5.653767 10.312279 4.983231 -1.389688 42.876308 -15.836395 -14.962824 -27.206436 -61.275253 86.834934 -45.132876 41.163948 50.215756 -7.694431 5.099936 -6.950886 -40.520169 -8.880549 19.548541 -2.082105 -64.795785 -60.650652 29.768936 15.232582 -75.276307 -8.775160 4.237957 -9.322643 7.195883 -22.385103 -16.473744 -3.262967 10.123052 -2.015459 1.968578 1.190864 0.080578 -1.026129 -1.214841 8.844265 -1.211810 -8.742530 10.833157 0.305129 4.013288 11.433615 0.379603 1.610600 0.070869 
1.676252 -32.035786 82.913452 -4.061036 1.184192 -122.964237 -1.763876 -4.232874 3.625581 -0.634685 -1.955545 1.555209 -0.634685 -1.955545 1.555211 -0.470993 -1.468287 1.164266 0.893919 -12.658409 -3.157172 0.384867 12.651266 -5.636302 10.246557 5.089112 -1.519556 42.894015 -15.835847 -15.125889 -27.246690 -61.390498 86.959264 -45.184007 41.287087 50.189880 -7.678808 4.967947 -7.000058 -40.470664 -8.664533 19.416020 -2.070288 -64.888546 -60.760352 29.756511 14.848077 -75.315075 -9.280210 4.655910 -9.324717 6.787427 -22.898406 -17.412724 -2.924320 10.183557 -1.244772 1.985595 0.866082 0.038570 -1.557484 -0.796719 7.777436 -0.736960 -9.176946 9.542400 0.089435 3.718225 11.548522 0.435311 1.602470 0.079645 
1.745831 -31.367498 82.927490 -4.036667 1.258365 -122.688024 -1.734241 -4.220183 3.567601 -0.625763 -1.950287 1.506467 -0.625763 -1.950288 1.506465 -0.464472 -1.464271 1.127747 0.904536 -12.645552 -3.145260 0.409495 12.675887 -5.609570 10.240874 5.086063 -1.499007 42.967043 -15.558283 -15.329564 -27.178521 -61.361047 86.849605 -45.040296 41.170837 50.275226 -7.784695 5.006284 -7.162807 -40.209416 -8.669218 19.481130 -1.922132 -65.049089 -61.159256 29.939069 14.646243 -75.278117 -9.539596 5.037406 -8.043985 6.888348 -22.954743 -17.052612 -3.339529 9.982572 -3.010711 2.104631 0.569447 0.122156 -1.775499 -0.430691 6.621458 0.109402 -9.218829 6.450032 -0.338570 3.161279 11.954410 0.371803 1.468471 0.060854 
1.631639 -30.773111 82.943604 -3.975156 1.354017 -122.273691 -1.735959 -4.195985 3.460905 -0.613166 -1.941338 1.444334 -0.613166 -1.941339 1.444333 -0.455245 -1.457464 1.081199 0.924625 -12.611436 -3.146538 0.445800 12.739966 -5.604575 10.230388 5.044764 -1.527591 43.061614 -15.295818 -15.504198 -27.371616 -61.184418 86.895026 -44.876744 41.052456 50.368595 -7.794580 4.926645 -7.120671 -40.066627 -8.932981 19.302174 -1.761596 -65.118655 -61.478417 30.095815 14.745759 -75.154306 -9.577488 5.477334 -6.422006 6.881721 -22.889900 -16.768849 -3.815400 9.669779 -4.802505 2.229056 0.335198 0.219316 -1.738625 -0.159755 4.947021 0.880020 -8.795315 2.403308 -0.770790 2.307645 12.377470 0.193205 1.314076 0.027000 
1.377635 -30.257351 82.970474 -3.877387 1.437446 -121.744843 -1.758584 -4.205187 3.289395 -0.596601 -1.932306 1.392444 -0.596601 -1.932307 1.392445 -0.443007 -1.450600 1.042350 0.957363 -12.557568 -3.177971 0.492815 12.840390 -5.652245 10.228341 5.167403 -1.592613 43.087057 -15.134430 -15.647998 -27.589873 -61.047992 87.026466 -44.705685 40.940424 50.464023 -7.791486 4.789029 -7.212475 -40.079335 -9.175125 19.184891 -1.823044 -64.983465 -61.433249 30.237114 14.954984 -75.085560 -9.553044 5.913812 -5.624948 6.547492 -22.878523 -16.609714 -4.045413 9.425573 -5.199920 2.230681 0.145548 0.193249 -1.621518 0.163947 2.342548 1.572748 -8.496805 -1.437742 -1.139825 1.590465 12.093143 -0.100305 1.197518 0.042627 
1.420075 -29.792591 83.001190 -3.830008 1.488684 -121.259299 -1.811182 -4.254282 3.126091 -0.574038 -1.919992 1.359397 -0.574038 -1.919992 1.359395 -0.426218 -1.441281 1.017650 0.980496 -12.523818 -3.223564 0.516424 12.902705 -5.730343 10.165055 5.171825 -1.637939 43.046881 -14.965865 -15.548946 -27.660967 -61.014469 87.113155 -44.535876 40.785713 50.546409 -7.806313 4.786287 -7.217697 -40.222059 -9.398579 19.252435 -2.008141 -64.805873 -61.166803 30.354764 15.101272 -75.126357 -9.583911 6.042518 -5.746363 5.526934 -22.686081 -15.235773 -3.193188 9.359810 -4.012693 1.572947 -0.088695 0.143644 -1.282299 0.596644 -0.709139 2.144610 -8.050058 -4.710869 -1.578596 0.716184 11.092074 -0.473316 1.052567 0.013063 
1.254521 -29.446896 83.032997 -3.714244 1.412594 -120.832521 -1.747982 -4.261774 2.944136 -0.551474 -1.910451 1.359131 -0.551474 -1.910452 1.359132 -0.409319 -1.434075 1.017531 0.997815 -12.515599 -3.279970 0.525468 12.917094 -5.830769 10.110755 5.173492 -1.637486 42.969693 -14.967260 -15.366683 -27.783664 -60.981705 87.290876 -44.425770 40.642382 50.609803 -7.825177 4.846886 -7.166736 -40.347895 -9.375336 19.436049 -2.047042 -64.780028 -61.070859 30.416899 15.104511 -75.121173 -8.975764 6.096905 -6.005488 3.734466 -22.228173 -11.572944 -2.004108 9.584449 -3.340469 0.617115 -0.627747 0.094415 -0.940276 0.755225 -4.024155 2.737877 -7.413018 -7.146249 -2.012605 0.142119 9.336983 -0.755384 0.869928 0.030385 
0.905578 -29.186884 83.034927 -3.410859 1.483662 -120.441548 -1.697379 -3.981382 2.730171 -0.543045 -1.918153 1.376718 -0.543046 -1.918153 1.376719 -0.402925 -1.439847 1.030739 1.012684 -12.516147 -3.342542 0.527630 12.914917 -5.943724 10.092784 5.183816 -1.605588 42.814187 -15.199973 -15.138664 -28.003429 -60.900344 87.617434 -44.488038 40.593942 50.561555 -7.824945 4.929979 -7.062970 -40.461720 -9.122253 19.605643 -1.931782 -64.841165 -61.129073 30.380248 14.952351 -75.084577 -8.533233 6.260895 -5.186088 2.309974 -21.740550 -7.280166 -0.750189 9.944651 -3.726689 -0.194066 -0.986168 0.249928 -0.400023 1.252993 -7.717702 3.112288 -6.437427 -8.837242 -2.761231 -0.672616 7.506228 -0.876569 0.729866 0.024689 
0.539086 -28.882961 83.000778 -3.334738 1.551662 -120.380062 -1.783574 -3.926381 2.781369 -0.545293 -1.921477 1.415602 -0.545294 -1.921477 1.415599 -0.404483 -1.442382 1.059890 1.048808 -12.490626 -3.410202 0.567011 12.961855 -6.058230 10.040999 5.125794 -1.671749 42.597793 -15.536005 -14.755550 -28.016750 -60.866698 87.848787 -44.615332 40.554661 50.461359 -7.753925 4.937481 -6.987001 -40.609969 -8.736570 19.699941 -1.804487 -64.822737 -61.226314 30.334974 14.669713 -75.122327 -8.125617 6.456661 -2.231732 1.256843 -21.428202 -4.690970 1.314569 10.494137 -2.908931 -1.262341 -1.225233 0.407692 0.010108 1.436684 -11.023004 3.207759 -5.340255 -9.998928 -3.461754 -1.281021 6.059048 -0.818642 0.541504 -0.159300 
0.253034 -28.542330 82.928413 -3.325460 1.497886 -120.583097 -1.829607 -4.026750 3.038187 -0.550014 -1.912553 1.474730 -0.550013 -1.912554 1.474729 -0.407858 -1.435754 1.104225 1.103640 -12.449894 -3.476527 0.641893 13.037859 -6.162800 9.991518 5.080935 -1.722662 42.389233 -15.813464 -14.385044 -27.764528 -60.958516 87.856962 -44.736715 40.520493 50.366252 -7.695154 4.989757 -6.967683 -40.739893 -8.457489 19.785859 -1.506715 -64.694800 -61.485363 30.269353 14.360167 -75.162953 -7.274679 6.593894 2.243033 0.450021 -21.359975 -2.923331 3.538186 11.604193 -1.531542 -2.381147 -1.629444 0.452712 0.394079 1.475550 -13.206423 3.133648 -4.510042 -10.588741 -4.256694 -1.473617 4.734240 -0.426930 0.285100 -0.383242 
0.116881 -28.050682 82.863014 -3.208389 1.272100 -120.817577 -1.667366 -4.130758 3.309899 -0.552807 -1.889391 1.525547 -0.552807 -1.889391 1.525549 -0.409853 -1.418435 1.142351 1.159506 -12.417073 -3.524953 0.726579 13.099752 -6.232575 9.989949 5.140466 -1.680897 42.247964 -16.037204 -14.235209 -27.385632 -61.093563 87.700817 -44.832296 40.512403 50.280233 -7.717441 5.231595 -6.892016 -40.800374 -8.430462 19.857506 -1.182286 -64.597853 -61.702365 30.122224 14.150079 -75.192139 -5.790135 6.885686 6.990472 0.107862 -21.939500 -1.637798 5.110241 13.492649 0.252867 -3.327254 -2.354588 0.337483 0.651590 1.599359 -13.949968 2.901423 -4.317159 -10.151088 -4.988423 -1.063776 2.997580 0.341681 -0.215519 -0.408324 
